<?xml version="1.0" encoding="utf-8"?>
<!-- Generator: Adobe Illustrator 24.0.1, SVG Export Plug-In . SVG Version: 6.00 Build 0)  -->
<svg version="1.1" id="Layer_1" xmlns="http://www.w3.org/2000/svg" xmlns:xlink="http://www.w3.org/1999/xlink" x="0px" y="0px"
	 viewBox="0 0 238.74 398.96" style="enable-background:new 0 0 238.74 398.96;" xml:space="preserve">
<style type="text/css">
	.st0{fill:#4C4C4D;}
	.st1{fill:#5D5E5E;}
	.st2{opacity:0.7;}
	.st3{fill:#333333;}
	.st4{fill:#F15A22;}
	.st5{fill:#EF4136;}
	.st6{fill:#0072BC;}
	.st7{fill:#39B54A;}
	.st8{opacity:0.6;}
	.st9{fill:#FFFFFF;}
	.st10{fill-rule:evenodd;clip-rule:evenodd;fill:#FFFFFF;}
	.st11{fill:#F15A29;}
</style>
<g>
	<g>
		<polygon class="st0" points="230.23,40.14 220.08,30.32 212.11,43.03 221.09,57.28 		"/>
	</g>
</g>
<g>
	<path class="st0" d="M235.78,83.53l-33.35-53.22l-10.15,9.82l25.97,48.7c-0.01,54.39-0.01,177.72-0.01,263.98H95.66
		c-0.08,0.28-0.19,0.54-0.29,0.82c-2,5.49-6.36,10-12,12.56c-1.87,0.85-3.87,1.48-5.98,1.86c-0.29,0.05-0.58,0.08-0.85,0.11h0.26
		c-0.1,0.02-0.2,0.03-0.3,0.04v0.03c-1.46,0.22-2.87,0.27-3.99,0.26v-0.01c-1.34-0.01-2.66-0.12-3.94-0.32
		c-3.65-0.57-7-1.91-9.88-3.8c-3.77-2.47-6.72-5.91-8.38-9.92c-0.11-0.27-0.2-0.54-0.3-0.81c-0.1-0.27-0.2-0.54-0.29-0.82H18.34
		v-41.7h4.48c6.32,0,11.78-2.24,16.23-6.65c4.46-4.42,6.72-9.86,6.72-16.18v-66.08c0-6.04-2.32-11.26-6.9-15.54
		c-4.56-4.26-9.96-6.42-16.05-6.42c-6.32,0-11.73,2.2-16.07,6.55c-4.35,4.34-6.55,9.75-6.55,16.07v51.63H0v94.48h72.49v-0.01h4.05
		v0.01h159.27v-15.34c0-79.35,0-190.52-0.02-250.85h-0.01V83.53z M16.92,224.52c0-5.8,3.27-7.02,6.02-7.02
		c2.8,0,6.13,1.22,6.13,7.02v64.2c0,4.01-2.16,6.13-6.24,6.13h-5.9V224.52z"/>
</g>
<g>
	<g>
		<path class="st0" d="M23.99,188.08h51.74h24.5h76.23v-0.01h0v-59.32h-16.6v43.1h-10.52v-43.1h-16.72v43.1h-10.51v-16.64
			c0.01,0,0.02-0.01,0.03-0.01v-25.44h-0.03v-1.01H105.4v38.21c-0.16,3.22-1.87,4.85-5.17,4.85H23.99c-3.47,0-5.2-1.77-5.2-5.31
			v-36.73H2.07v36.73c0,5.9,2.16,10.98,6.47,15.22C12.86,185.96,18.01,188.08,23.99,188.08z"/>
	</g>
	<g>
		<path class="st0" d="M176.45,188.89H23.99c-6.17,0-11.56-2.22-16.01-6.6c-4.46-4.38-6.72-9.7-6.72-15.8v-37.55H19.6v37.55
			c0,3.11,1.35,4.5,4.38,4.5h76.24c2.84,0,4.22-1.29,4.36-4.07l0-38.99h18.34v43.1h8.88v-43.1h18.34v43.1h8.89v-43.1h18.23
			l-0.02,60.33l-0.16,0.62L176.45,188.89z M2.88,130.58v35.92c0,5.65,2.1,10.57,6.23,14.64c4.14,4.07,9.14,6.13,14.87,6.13h151.65
			l0-57.7h-14.97v43.1h-12.15v-43.1h-15.09v43.1h-12.14v-43.1h-15.09v37.4c-0.18,3.72-2.25,5.66-5.99,5.66H23.99
			c-3.93,0-6.02-2.12-6.02-6.12v-35.92H2.88z"/>
	</g>
</g>
<g>
	<g>
		<rect x="132.62" y="192.48" class="st0" width="16.72" height="19.56"/>
	</g>
	<g>
		<path class="st0" d="M150.15,212.85h-18.34v-21.19h18.34V212.85z M133.43,211.22h15.09v-17.93h-15.09V211.22z"/>
	</g>
</g>
<g>
	<g>
		<rect x="105.4" y="192.48" class="st0" width="16.71" height="19.56"/>
	</g>
	<g>
		<path class="st0" d="M122.92,212.85h-18.34v-21.19h18.34V212.85z M106.21,211.22h15.09v-17.93h-15.09V211.22z"/>
	</g>
</g>
<g>
	<g>
		<rect x="65.58" y="128.75" class="st0" width="16.71" height="19.56"/>
	</g>
	<g>
		<path class="st0" d="M83.11,149.12H64.76v-21.18h18.34V149.12z M66.39,147.49h15.08v-17.93H66.39V147.49z"/>
	</g>
</g>
<g>
	<g>
		<rect x="44.81" y="128.75" class="st0" width="16.72" height="19.56"/>
	</g>
	<g>
		<path class="st0" d="M62.34,149.12H43.99v-21.18h18.34V149.12z M45.62,147.49h15.09v-17.93H45.62V147.49z"/>
	</g>
</g>
<g>
	<g>
		<rect x="159.85" y="192.48" class="st0" width="16.6" height="19.56"/>
	</g>
	<g>
		<path class="st0" d="M177.27,212.85h-18.23v-21.19h18.23V212.85z M160.67,211.22h14.97v-17.93h-14.97V211.22z"/>
	</g>
</g>
<g>
	<polygon class="st1" points="211.3,8.01 211.32,7.18 211.27,7.17 	"/>
</g>
<g class="st2">
	<polygon class="st3" points="229.06,42.31 217.84,33.89 219.35,31.47 	"/>
</g>
<g class="st2">
	<polygon class="st3" points="193.3,42.59 204.56,33.9 202.52,30.51 	"/>
</g>
<g>
	<polygon class="st4" points="118,14.63 62.37,27.09 62.37,120.97 118.9,120.97 118.9,120.22 118.9,14.43 	"/>
</g>
<g>
	<polygon class="st5" points="62.07,27.16 62.07,120.97 62.37,120.97 62.37,27.09 	"/>
</g>
<g>
	<polygon class="st6" points="5.54,39.83 5.54,120.97 62.07,120.97 62.07,27.16 	"/>
</g>
<g>
	<polygon class="st7" points="174.83,1.9 118.9,14.43 118.9,120.9 174.83,120.9 	"/>
</g>
<g>
	<g>
		<g>
			<path class="st4" d="M0.84,398.96v-16.83h13.7c0.92,0,1.72,0.08,2.38,0.25c0.66,0.17,1.19,0.41,1.6,0.72
				c0.41,0.31,0.7,0.69,0.9,1.15c0.19,0.46,0.28,0.96,0.28,1.52v1.55c0,0.74-0.18,1.35-0.54,1.86c-0.36,0.5-0.84,0.81-1.45,0.94
				c0.63,0.17,1.16,0.47,1.58,0.9c0.41,0.42,0.62,1.04,0.62,1.85v2.46c0,0.48-0.09,0.94-0.25,1.38c-0.17,0.44-0.46,0.82-0.86,1.16
				c-0.41,0.34-0.95,0.6-1.64,0.8c-0.68,0.2-1.54,0.3-2.58,0.3H0.84z M16.52,385.93c0-0.46-0.15-0.8-0.43-1
				c-0.29-0.21-0.8-0.31-1.55-0.31H4.02v4.37h10.52c0.75,0,1.27-0.1,1.55-0.31c0.29-0.21,0.43-0.54,0.43-1.01V385.93z M16.74,392.91
				c0-0.52-0.2-0.89-0.6-1.11c-0.4-0.22-0.92-0.32-1.56-0.32H4.02v4.99h10.57c0.64,0,1.16-0.12,1.56-0.36c0.4-0.24,0.6-0.7,0.6-1.39
				V392.91z"/>
		</g>
	</g>
	<g>
		<g>
			<path class="st4" d="M41.12,398.96l-8.68-13.56l-8.82,13.56h-3.54l11.19-16.83h2.32l11.11,16.83H41.12z"/>
		</g>
	</g>
	<g>
		<g>
			<path class="st4" d="M46.15,398.96v-16.83h3.18v16.83H46.15z"/>
		</g>
	</g>
	<g>
		<g>
			<path class="st4" d="M60.13,398.96v-14.35h-8.82v-2.48H71.9v2.48h-8.59v14.35H60.13z"/>
		</g>
	</g>
	<g>
		<g>
			<path class="st4" d="M79,398.96c-0.96,0-1.77-0.1-2.44-0.3c-0.67-0.2-1.22-0.48-1.64-0.84c-0.42-0.36-0.73-0.79-0.92-1.28
				c-0.19-0.49-0.29-1.04-0.29-1.65v-12.77h3.18v12.79c0,1.03,0.7,1.55,2.1,1.55h10.45c1.4,0,2.1-0.52,2.1-1.55v-12.79h3.18v12.77
				c0,0.6-0.06,1.16-0.18,1.65c-0.12,0.5-0.35,0.93-0.69,1.28c-0.34,0.36-0.82,0.64-1.41,0.84c-0.6,0.2-1.37,0.3-2.33,0.3H79z"/>
		</g>
	</g>
	<g>
		<g>
			<path class="st4" d="M97.74,398.96v-2.49h14.64c1.4,0,2.1-0.52,2.1-1.55v-2.13c0-1.04-0.7-1.55-2.1-1.55h-9.9
				c-0.95,0-1.77-0.1-2.44-0.3c-0.67-0.2-1.22-0.48-1.64-0.84c-0.42-0.36-0.73-0.78-0.92-1.27c-0.19-0.5-0.29-1.05-0.29-1.65v-0.98
				c0-0.6,0.1-1.16,0.29-1.65c0.19-0.49,0.5-0.92,0.92-1.28c0.42-0.36,0.97-0.64,1.64-0.84c0.67-0.2,1.48-0.3,2.44-0.3h14.25v2.48
				h-14.25c-1.4,0-2.1,0.52-2.1,1.55v1.03c0,1.04,0.7,1.56,2.1,1.56h9.9c0.95,0,1.77,0.1,2.44,0.3c0.67,0.2,1.21,0.47,1.64,0.84
				c0.42,0.36,0.73,0.78,0.92,1.28c0.19,0.49,0.29,1.04,0.29,1.65v2.08c0,0.6-0.1,1.16-0.29,1.65c-0.19,0.5-0.5,0.93-0.92,1.28
				c-0.42,0.36-0.97,0.64-1.64,0.84c-0.67,0.2-1.49,0.3-2.44,0.3H97.74z"/>
		</g>
	</g>
	<g>
		<g>
			<path class="st4" d="M120.24,398.96v-2.49h14.63c1.41,0,2.1-0.52,2.1-1.55v-2.13c0-1.04-0.7-1.55-2.1-1.55h-9.9
				c-0.95,0-1.77-0.1-2.44-0.3c-0.67-0.2-1.22-0.48-1.64-0.84c-0.42-0.36-0.73-0.78-0.92-1.27c-0.19-0.5-0.29-1.05-0.29-1.65v-0.98
				c0-0.6,0.1-1.16,0.29-1.65c0.19-0.49,0.49-0.92,0.92-1.28c0.42-0.36,0.96-0.64,1.64-0.84c0.67-0.2,1.48-0.3,2.44-0.3h14.25v2.48
				h-14.25c-1.4,0-2.1,0.52-2.1,1.55v1.03c0,1.04,0.7,1.56,2.1,1.56h9.9c0.96,0,1.77,0.1,2.44,0.3c0.67,0.2,1.22,0.47,1.64,0.84
				c0.42,0.36,0.73,0.78,0.92,1.28c0.19,0.49,0.29,1.04,0.29,1.65v2.08c0,0.6-0.1,1.16-0.29,1.65c-0.19,0.5-0.5,0.93-0.92,1.28
				c-0.42,0.36-0.97,0.64-1.64,0.84c-0.67,0.2-1.48,0.3-2.44,0.3H120.24z"/>
		</g>
	</g>
	<g>
		<g>
			<path class="st4" d="M161.17,398.96l-8.68-13.56l-8.82,13.56h-3.54l11.19-16.83h2.32l11.12,16.83H161.17z"/>
		</g>
	</g>
	<g>
		<g>
			<path class="st4" d="M166.07,398.96v-16.83h3.2v14.34h13.65v2.49H166.07z"/>
		</g>
	</g>
	<g>
		<g>
			<path class="st4" d="M204.39,398.96l-8.68-13.56l-8.82,13.56h-3.54l11.19-16.83h2.32l11.12,16.83H204.39z"/>
		</g>
	</g>
	<g>
		<g>
			<path class="st4" d="M231.99,398.96v-11.79l-8.56,11.79h-2.6l-8.58-11.76v11.76h-2.94v-16.83h2.96l10,13.75l9.94-13.75h2.73
				v16.83H231.99z"/>
		</g>
	</g>
</g>
<g>
	<g>
		<rect x="50.94" y="205.09" class="st0" width="16.71" height="130.94"/>
	</g>
	<g>
		<path class="st0" d="M68.46,336.85H50.12V204.28h18.34V336.85z M51.75,335.22h15.08V205.91H51.75V335.22z"/>
	</g>
</g>
<g>
	<g class="st8">
		<path class="st9" d="M170.42,107.98V57.97c0,0-7.59-15.59-30.18-24.18c0,14.79,0,53.35,0,53.35S156.23,88,170.42,107.98z"/>
	</g>
	<g class="st8">
		<path class="st9" d="M170.42,110.62c0,0-20.85-16.09-38.25-14.6c0-9.57,0-55.39,0-55.39s2.89,0.74,5.78,2.15
			c0,6.93,0,48.46,0,48.46S155.34,92.31,170.42,110.62z"/>
	</g>
	<g class="st8">
		<path class="st9" d="M170.42,107.98V59.61c-19.13-14.11-30.18-16.59-30.18-16.59c0,16.68,0,44.12,0,44.12S156.23,88,170.42,107.98
			z"/>
	</g>
	<g class="st8">
		<path class="st9" d="M170.42,113.12c0,0-28.22-12.3-46.52-8.39c0-12.97,0-56.66,0-56.66s2.67,0.17,6.01,0.95
			c0,5.91,0,51.42,0,51.42S151.62,97.48,170.42,113.12z"/>
	</g>
	<g>
		<path class="st9" d="M170.42,107.98V60.27c-11.74-4.5-22.18-7.46-30.18-9.36c0,15.48,0,36.23,0,36.23S156.23,88,170.42,107.98z"/>
	</g>
	<g>
		<path class="st9" d="M137.95,50.44c0-3.48,0-6.24,0-7.67c-2.89-1.4-5.78-2.15-5.78-2.15s0,3.46,0,8.62
			C133.88,49.58,135.81,49.98,137.95,50.44z"/>
	</g>
</g>
<g>
	<g>
		<path class="st10" d="M33,106.52c0.72-5.61,1.44-11.27,2.21-17.31c4.42,4.32,8.5,8.36,12.64,12.33c1.95,1.87,4.03,1.95,5.31,0.24
			c1.25-1.66,1-3.21-0.53-4.68c-4.87-4.7-9.63-9.52-14.55-14.16c-1.47-1.38-2.04-2.74-1.53-4.65c0.21-0.8,0.22-1.65,0.33-2.48
			c0.65-4.82,0.82-5.05,5.61-4.42c7.59,1,12.9,5.16,15.34,12.39c2.56,7.59,0.67,14.31-5.21,19.75
			C47.43,108.34,39.72,109.47,33,106.52z"/>
	</g>
	<g class="st8">
		<path class="st10" d="M33.96,79.19c-4.87-0.61-9.54-1.2-14.61-1.83c0.84-6.06,1.84-15.31,3.04-21.16
			c0.73-3.57,4.65-5.85,7.55-5.26c3.74,0.77,6.84,4.6,6.49,8.62C35.96,64.98,34.67,73.64,33.96,79.19z"/>
	</g>
	<g>
		<path class="st10" d="M14.19,79.9c0.89,0.15,1.58,0.26,2.3,0.39c-0.01,0.4,0.01,0.67-0.02,0.93c-0.59,4.6-1.9,14.09-2.43,18.69
			c-0.57,4.98,1.39,7.08,7.09,7.75c4.24,0.5,6.84-1.55,7.43-5.94c0.54-4.03,1.67-12.96,2.2-17.2c-3.99-0.54-7.83-1.05-11.66-1.56
			c-0.18-0.23-0.36-0.47-0.54-0.71c0.66-0.54,1.37-1.6,1.97-1.54c4.33,0.41,8.63,1.04,13.04,1.62c-0.69,5.32-1.94,15.38-2.7,20.51
			c-0.81,5.41-4.61,7.97-10.5,7.26c-6.14-0.74-9.41-4.11-8.91-9.51c0.45-4.79,1.83-14.46,2.44-19.23
			C13.95,80.99,14.05,80.64,14.19,79.9z"/>
	</g>
	<g>
		<path class="st10" d="M24.44,50.69c-3.93,2.06-4.98,5.53-5.33,9.52c-0.4,4.41-1.54,12.06-2.12,16.55
			c-1.88,0.42-2.57-0.08-2.27-2.06c0.67-4.39,1.57-12.08,2.19-16.47C17.57,53.63,19.65,51.53,24.44,50.69z"/>
	</g>
</g>
<g>
	<path class="st9" d="M90.34,106.12c-0.01-0.05-0.01-0.11,0-0.16c0.03-0.16,0.1-0.33,0.09-0.49c-0.02-0.4-0.09-0.79-0.14-1.19
		c-0.08-0.71-0.14-1.43-0.25-2.14c-0.1-0.72-0.24-1.43-0.37-2.14c-0.13-0.7-0.26-1.39-0.41-2.08c-0.21-0.96-0.4-1.92-0.66-2.87
		c-0.23-0.84-0.51-1.66-0.8-2.48c-0.28-0.8-0.59-1.59-0.89-2.39c-0.11-0.27-0.22-0.53-0.38-0.78c-0.07-0.1-0.28-0.2-0.36-0.17
		c-0.11,0.05-0.22,0.24-0.21,0.36c0.01,0.18,0.12,0.35,0.19,0.52c0.35,0.86,0.73,1.71,1.02,2.58c0.38,1.15,0.72,2.31,1.04,3.48
		c0.24,0.91,0.45,1.84,0.62,2.77c0.17,0.9,0.29,1.81,0.43,2.71c0.04,0.25,0.05,0.5,0.09,0.75c0.1,0.68,0.25,1.36,0.32,2.05
		c0.1,1.01,0.15,2.02,0.22,3.03c0.02,0.26,0,0.54,0.07,0.79c0.04,0.15,0.21,0.37,0.34,0.38c0.17,0.02,0.35-0.13,0.34-0.38
		c-0.01-0.16,0-0.32,0-0.48c0.03-0.01,0.05-0.01,0.08-0.02C90.59,107.24,90.46,106.68,90.34,106.12z"/>
</g>
<g>
	<path class="st9" d="M107.79,55.04l-0.8,0H72.75v0.9v53.93h1.9V56.89l33.14,0.05c1.34,0,2.44,1.09,2.44,2.44
		c0,1.34-1.09,2.43-2.44,2.43H77.85v48.06h29.61c2.57,0,4.65-2.09,4.65-4.65V59.37C112.11,56.98,110.17,55.04,107.79,55.04z
		 M103.92,90.29c-0.24,0.55-0.52,1.08-0.73,1.64c-0.32,0.86-0.62,1.74-0.87,2.62c-0.25,0.87-0.46,1.77-0.66,2.65
		c-0.15,0.62-0.28,1.25-0.4,1.88c-0.15,0.79-0.3,1.58-0.41,2.37c-0.16,1-0.3,2-0.41,3c-0.16,1.44-0.28,2.88-0.42,4.32
		c-0.02,0.27-0.3,0.48-0.66,0.48c-0.84,0.01-1.68,0-2.52,0c-0.8,0-1.61,0-2.41,0c-1.61,0-3.22,0-4.82,0c-0.57,0-0.73-0.16-0.77-0.73
		c-0.08-1.2-0.17-2.4-0.28-3.59c-0.11-1.04-0.26-2.08-0.41-3.11c-0.12-0.8-0.26-1.61-0.42-2.41c-0.19-0.95-0.39-1.9-0.62-2.84
		c-0.24-0.96-0.51-1.91-0.82-2.85c-0.27-0.84-0.62-1.65-0.93-2.48c-0.22-0.58-0.46-1.15-0.66-1.73c-0.04-0.13,0.01-0.32,0.08-0.45
		c0.31-0.72,0.64-1.43,0.97-2.14c0.3-0.68,0.61-1.37,0.91-2.05c0.32-0.73,0.63-1.46,0.96-2.19c0.3-0.68,0.62-1.36,0.92-2.03
		c0.23-0.52,0.45-1.04,0.68-1.57c0.38-0.86,0.75-1.71,1.12-2.57c0.32-0.73,0.66-1.46,0.99-2.19c0.31-0.7,0.63-1.4,0.92-2.12
		c0.12-0.31,0.34-0.58,0.14-0.99c-0.23-0.46-0.03-0.88,0.35-1.16c0.54-0.4,1.17,0.02,1.27,0.53c0.07,0.36,0.05,0.74-0.24,1.05
		c-0.06,0.06-0.08,0.18-0.08,0.27c0,3.06,0,6.13,0,9.2c0,3.52-0.01,7.03,0,10.55c0,0.41-0.3,0.58-0.54,0.78
		c-0.76,0.61-1.03,1.42-0.89,2.32c0.13,0.9,0.61,1.63,1.53,1.97c0.88,0.32,2.08-0.16,2.5-1c0.21-0.42,0.37-0.85,0.36-1.34
		c-0.01-0.87-0.37-1.57-1.05-2.08c-0.31-0.23-0.41-0.46-0.41-0.82c0.01-6.48,0.01-12.96,0-19.44c0-0.17-0.07-0.37-0.16-0.52
		c-0.34-0.55-0.24-1.19,0.26-1.51c0.54-0.35,1.06,0.05,1.21,0.49c0.1,0.3,0.04,0.6-0.08,0.91c-0.07,0.21,0.09,0.53,0.2,0.78
		c0.37,0.89,0.76,1.76,1.15,2.64c0.32,0.71,0.66,1.41,0.98,2.12c0.23,0.52,0.43,1.05,0.66,1.58c0.32,0.72,0.66,1.43,0.98,2.15
		c0.31,0.71,0.6,1.42,0.91,2.12c0.36,0.84,0.74,1.68,1.11,2.52c0.31,0.69,0.62,1.38,0.93,2.08c0.22,0.5,0.41,1.02,0.68,1.49
		C104.28,89.4,104.12,89.84,103.92,90.29z"/>
</g>
<g>
	<path class="st11" d="M103.33,88.09c-0.31-0.69-0.62-1.38-0.93-2.08c-0.37-0.84-0.74-1.67-1.11-2.51c-0.31-0.71-0.6-1.42-0.91-2.13
		c-0.32-0.72-0.66-1.43-0.98-2.15c-0.23-0.52-0.43-1.06-0.66-1.57c-0.32-0.72-0.66-1.41-0.98-2.12c-0.39-0.88-0.78-1.75-1.15-2.64
		c-0.11-0.25-0.27-0.57-0.2-0.78c0.12-0.32,0.18-0.61,0.08-0.91c-0.15-0.45-0.67-0.84-1.21-0.49c-0.5,0.32-0.6,0.96-0.26,1.51
		c0.09,0.15,0.16,0.35,0.16,0.52c0.01,6.48,0.01,12.96,0,19.44c0,0.35,0.1,0.59,0.41,0.82c0.68,0.5,1.04,1.2,1.05,2.08
		c0,0.49-0.16,0.92-0.36,1.34c-0.42,0.84-1.62,1.32-2.5,1c-0.92-0.34-1.4-1.07-1.53-1.97c-0.13-0.9,0.14-1.72,0.89-2.32
		c0.24-0.2,0.54-0.36,0.54-0.78c-0.01-3.52,0-7.03,0-10.55c0-3.07-0.01-6.13,0-9.2c0-0.09,0.02-0.21,0.08-0.27
		c0.3-0.3,0.31-0.68,0.24-1.05c-0.11-0.51-0.73-0.94-1.27-0.53c-0.38,0.28-0.58,0.7-0.35,1.16c0.2,0.42-0.02,0.68-0.14,0.99
		c-0.29,0.71-0.61,1.41-0.92,2.12c-0.33,0.74-0.66,1.46-0.99,2.19c-0.38,0.86-0.75,1.71-1.12,2.57c-0.23,0.52-0.45,1.04-0.68,1.56
		c-0.31,0.68-0.62,1.35-0.92,2.04c-0.32,0.72-0.64,1.46-0.96,2.19c-0.3,0.68-0.6,1.36-0.91,2.05c-0.32,0.71-0.66,1.42-0.97,2.14
		c-0.06,0.14-0.12,0.32-0.08,0.45c0.2,0.58,0.44,1.15,0.66,1.73c0.31,0.82,0.66,1.64,0.93,2.48c0.31,0.94,0.57,1.89,0.82,2.85
		c0.24,0.94,0.44,1.89,0.62,2.84c0.16,0.8,0.3,1.61,0.42,2.41c0.15,1.04,0.3,2.07,0.41,3.11c0.12,1.19,0.2,2.39,0.28,3.58
		c0.04,0.57,0.19,0.73,0.77,0.73c1.61,0,3.22,0,4.82,0c0.8,0,1.61,0,2.41,0c0.84,0,1.68,0.01,2.52,0c0.36,0,0.63-0.21,0.66-0.48
		c0.14-1.44,0.26-2.89,0.42-4.32c0.11-1.01,0.25-2,0.41-3.01c0.12-0.79,0.26-1.58,0.41-2.37c0.12-0.63,0.25-1.26,0.4-1.88
		c0.21-0.89,0.41-1.78,0.66-2.65c0.26-0.88,0.56-1.76,0.87-2.62c0.21-0.56,0.49-1.09,0.73-1.64c0.2-0.45,0.36-0.89,0.08-1.39
		C103.73,89.11,103.55,88.59,103.33,88.09z M90.64,108.97c0.01,0.25-0.17,0.4-0.34,0.38c-0.13-0.01-0.3-0.23-0.34-0.38
		c-0.07-0.25-0.05-0.52-0.07-0.79c-0.07-1.01-0.12-2.03-0.22-3.03c-0.07-0.69-0.21-1.37-0.32-2.05c-0.04-0.25-0.05-0.5-0.09-0.75
		c-0.14-0.9-0.25-1.81-0.43-2.71c-0.18-0.93-0.38-1.86-0.62-2.77c-0.31-1.17-0.65-2.33-1.04-3.48c-0.29-0.88-0.68-1.72-1.02-2.58
		c-0.07-0.18-0.18-0.35-0.19-0.53c-0.01-0.12,0.11-0.31,0.21-0.36c0.08-0.03,0.29,0.07,0.36,0.17c0.16,0.24,0.27,0.51,0.38,0.78
		c0.31,0.79,0.61,1.58,0.89,2.39c0.29,0.82,0.57,1.65,0.8,2.48c0.25,0.95,0.45,1.91,0.66,2.87c0.15,0.69,0.28,1.39,0.41,2.08
		c0.13,0.71,0.27,1.42,0.37,2.14c0.1,0.71,0.16,1.43,0.25,2.14c0.05,0.4,0.11,0.79,0.14,1.19c0.01,0.16-0.06,0.33-0.09,0.49
		c-0.01,0.05-0.02,0.11,0,0.16c0.13,0.56,0.25,1.12,0.38,1.67c-0.03,0.01-0.05,0.01-0.08,0.02
		C90.64,108.65,90.63,108.81,90.64,108.97z"/>
</g>
<g>
	<path class="st11" d="M99.35,110.82c-3.15,0-6.29,0-9.43,0c-0.23,0-0.46,0-0.69,0.01c-0.28,0.01-0.46,0.15-0.47,0.43
		c-0.01,0.48-0.03,6.27,0.01,6.75c0.03,0.38,0.2,0.49,0.59,0.49c1.69,0,3.37,0,5.06,0c1.69,0,3.37,0,5.06,0
		c0.4,0,0.56-0.11,0.61-0.52c0.04-0.36,0.04-6.04,0.03-6.41C100.1,110.92,100,110.82,99.35,110.82z"/>
</g>
<g class="st8">
	<path class="st9" d="M106.98,44.95c0-2.39-1.94-4.33-4.33-4.33H67.71v69.25h1.9V42.51h33.04c1.34,0,2.44,1.09,2.44,2.44
		c0,1.34-1.12,2.46-2.44,2.46h-29.9v7.58v0.05h34.24V44.95z"/>
</g>
<g>
	<g>
		<polygon class="st6" points="183.85,27.62 193.59,42.28 207.19,26.95 195.96,15.45 		"/>
	</g>
	<g>
		<polygon class="st4" points="211.3,0 197.01,14.4 208.17,25.84 211.3,22.31 214.34,25.74 225.59,14.41 		"/>
	</g>
	<g>
		<polygon class="st7" points="238.74,27.62 226.63,15.46 215.32,26.85 229,42.28 		"/>
	</g>
</g>
<g>
	<g>
		<path class="st0" d="M210.47,77.33L201.3,60.4l-14.46,23.06v19.32h-0.06l-0.02,27.5c-0.01,27.17-0.01,60.4-0.02,93.34l-0.41,98.47
			c0,3.11-1.35,4.49-4.5,4.49c-3.11,0-4.5-1.45-4.5-4.72V215.64h-18.23v102.8c0,4.76-0.2,5.8-0.28,6.03
			c-0.53,1.43-1.95,2.12-4.33,2.12c-1.95,0-3.15-0.6-3.68-1.83c-0.27-0.64-0.6-2.24-0.6-6.21V215.64h-18.34v102.91
			c0,8.04-3.47,8.04-4.61,8.04c-1.06,0-4.27,0-4.27-8.15v-102.8h-18.34v106.23c0,3.27-1.39,4.72-4.5,4.72h-0.33
			c-2.8,0-4.06-1.25-4.06-4.05V204.28H77.43v139.39c0,2.81-1.34,4.06-4.33,4.06c-3.15,0-4.55-1.25-4.55-4.06v-0.82H50.2v0.82
			c0,6.25,2.2,11.62,6.54,15.97c4.34,4.34,9.72,6.54,15.97,6.54c6.24,0,11.7-2.22,16.23-6.59c4.45-4.3,6.74-9.54,6.83-15.57
			c0.8,0.15,1.61,0.27,2.47,0.34v0.13l3.96-0.05v-0.05c4.31-0.37,8.2-1.93,11.58-4.63c3.93,3.14,8.51,4.74,13.62,4.74
			c5.68,0,10.19-0.92,13.45-2.72c2.65,1.83,6.99,2.72,13.22,2.72c5.54,0,10.33-1.59,14.28-4.74c3.43,2.75,7.36,4.31,11.69,4.65v0.09
			l3.73-0.05v-0.04c5.44-0.39,10.21-2.58,14.2-6.51c4.46-4.38,6.72-9.7,6.72-15.8l-0.33-70.86l0-132.25l-0.01,0.01l0.01-30.18
			L210.47,77.33z"/>
	</g>
</g>
</svg>
